# xmcd CD database file generated by Grip 2.96
# 
# Track frame offsets:
#       150
#       37567
#       56330
#       73265
#       94782
#       109660
#       131935
#       146565
#       158382
#       179750
#       191695
#       215825
# 
# Disc length: 3240 seconds
# 
# Revision: 0
# Processed by: cddbd v1.4PL0 Copyright (c) Steve Scherf et al.
# Submitted via: Grip 2.96
# 
DISCID=ae0ca60c
DTITLE=Show of Hands - Show of Hands
DYEAR=1900
DGENRE=
TTITLE0=Medley - Man of War, The Well, The Oak
TTITLE1=Exile
TTITLE2=The Blind Fiddler
TTITLE3=Armadas
TTITLE4=Cars
TTITLE5=Columbus (Did'nt find America)
TTITLE6=Cutthroats, Crooks and Conmen
TTITLE7=Crow on the Cradle
TTITLE8=The Preacher
TTITLE9=Longdog
TTITLE10=Cousin Jack
TTITLE11=The Train/Blackwaterside
EXTD=
EXTT0=
EXTT1=
EXTT2=
EXTT3=
EXTT4=
EXTT5=
EXTT6=
EXTT7=
EXTT8=
EXTT9=
EXTT10=
EXTT11=
PLAYORDER=
